# xmcd CD database file
#
# Track frame offsets:
#	150
#	17894
#	40732
#	65421
#	82049
#	100985
#	124538
#	148333
#	170370
#	189864
#	212225
#
# Disc length: 3059 seconds
#
# Revision: 0
# Processed by: cddbd v1.5.1PL0 Copyright (c) Steve Scherf et al.
# Submitted via: CDex 1.51
#
DISCID=980bf10b
DTITLE=Mary Ann Redmond - Send the Moon
DYEAR=2005
DGENRE=Blues
TTITLE0=Fly Away Home
TTITLE1=Fifth Gear
TTITLE2=Not Dark Yet
TTITLE3=I'll Get Over It
TTITLE4=Strong Too Long
TTITLE5=Send the Moon
TTITLE6=(If Loving You is Wrong) I Don't Want to be Right
TTITLE7=Should I Let You Know?
TTITLE8=He Won't Fall
TTITLE9=I Still Haven't Found What I'm Looking For
TTITLE10=Damned
EXTD=YEAR: 2005
EXTT0=
EXTT1=
EXTT2=
EXTT3=
EXTT4=
EXTT5=
EXTT6=
EXTT7=
EXTT8=
EXTT9=
EXTT10=
PLAYORDER=
